#N canvas 434 23 1132 1005 12;
#X obj -304 38 print;
#X floatatom -303 -9 5 0 0 0 - - -;
#X text -262 -11 this is a number. cmd-3;
#X text -260 38 this is an object \, cmd-1;
#X text -311 -42 to toggle edit mode: cmd-e;
#X floatatom -48 24 0 0 0 0 - - -;
#X floatatom -64 53 0 0 0 0 - - -;
#X floatatom -32 -9 0 0 0 0 - - -;
#X obj -64 -34 ctlin;
#X text -33 54 value;
#X text -1 -8 channel;
#X text -20 -35 (all controllers \, omni);
#X text -17 24 controller #;
#X floatatom -280 143 5 0 0 0 - - -;
#X floatatom -69 140 5 0 0 0 - - -;
#X floatatom 214 143 5 0 0 0 - - -;
#X floatatom 431 145 5 0 0 0 - - -;
#X obj 214 108 ctlin 10;
#X obj 431 110 ctlin 11;
#X msg -202 510 connect localhost 7404;
#X obj -202 480 loadbang;
#X obj -280 549 netsend -u -b;
#X obj -280 454 list prepend send;
#X obj -280 479 list trim;
#X obj -280 176 oscformat /beatstep/knobs/1;
#X obj -280 108 ctlin 8 1;
#X obj -69 105 ctlin 20 17;
#X text -282 86 Beatsep Knob 1;
#X obj -69 176 oscformat /deepmind;
#X floatatom 249 58 0 0 0 0 - - -;
#X text 280 59 value;
#X text 321 -30 (all controllers \, omni);
#X obj 249 -29 ctlin 15 1;
#X connect 1 0 0 0;
#X connect 8 0 6 0;
#X connect 8 1 5 0;
#X connect 8 2 7 0;
#X connect 13 0 24 0;
#X connect 14 0 28 0;
#X connect 17 0 15 0;
#X connect 18 0 16 0;
#X connect 19 0 21 0;
#X connect 20 0 19 0;
#X connect 22 0 23 0;
#X connect 23 0 21 0;
#X connect 24 0 22 0;
#X connect 25 0 13 0;
#X connect 26 0 14 0;
#X connect 28 0 22 0;
#X connect 32 0 29 0;
