#N canvas 1 23 1363 807 12;
#X text 510 856 touch simulation output;
#X text 18 686 CCchannel 1 - GSR;
#X text 18 698 CCchannel 2 - Thermistor;
#X text 18 711 CCchannel 3 - Pulse;
#X text 19 723 value||controller#||channel;
#X floatatom 354 526 5 0 0 0 - - -;
#X floatatom 512 523 5 0 0 0 - - -;
#X floatatom 675 525 5 0 0 0 - - -;
#X text 18 765 thermistor: will generate a steady "legato" pulse when
the value is above 67 with the duration controlled by GSR when GSR
is above 55;
#X obj 671 611 makenote 127;
#X obj 362 650 makenote 127;
#X obj 516 830 noteout;
#X floatatom 696 750 5 0 0 0 - - -;
#X text 19 738 pulse: pulse will generate a short low pitched tens
frequency when a pulse is detected;
#X text 787 469 pulse;
#N canvas 225 83 948 655 network 0;
#X obj 515 531 netreceive -u -b;
#X msg 665 501 listen 7401;
#X text 106 101 client;
#X obj 88 103 tgl 15 0 empty empty empty 17 7 0 10 -262144 -1 -1 0
1;
#X obj 155 546 netsend -u -b;
#X obj 305 105 tgl 15 0 empty empty empty 17 7 0 10 -262144 -1 -1 0
1;
#X text 320 102 host;
#X obj 240 179 sel 0;
#X msg 240 224 disconnect;
#X obj 240 203 bng 15 250 50 0 empty empty empty 17 7 0 10 -262144
-1 -1;
#X obj 43 179 sel 0;
#X msg 43 224 disconnect;
#X obj 43 204 bng 15 250 50 0 empty empty empty 17 7 0 10 -262144 -1
-1;
#X obj 304 41 inlet;
#X obj 88 41 inlet;
#X obj 516 595 s receiver;
#X obj 683 241 r sender;
#X obj 682 299 list prepend send;
#X obj 682 326 list trim;
#X msg 435 257 connect localhost 3001;
#X msg 764 501 listen 3001;
#X obj 683 273 oscformat /biodata;
#X obj 444 41 inlet;
#X obj 444 103 tgl 15 0 empty empty empty 17 7 0 10 -262144 -1 -1 0
1;
#X text 459 100 local;
#X msg 516 499 listen 7403;
#X obj 448 180 sel 0;
#X msg 448 225 disconnect;
#X obj 448 205 bng 15 250 50 0 empty empty empty 17 7 0 10 -262144
-1 -1;
#X obj 516 476 bng 15 250 50 0 empty empty empty 17 7 0 10 -262144
-1 -1;
#X obj 664 473 bng 15 250 50 0 empty empty empty 17 7 0 10 -262144
-1 -1;
#X obj 764 471 bng 15 250 50 0 empty empty empty 17 7 0 10 -262144
-1 -1;
#X msg 29 254 connect localhost 7404;
#X msg 230 257 connect localhost 7402;
#X obj 667 561 netreceive -u -b;
#X obj 666 590 s receiver;
#X obj 805 552 netreceive -u -b;
#X obj 804 581 s receiver;
#X connect 0 0 15 0;
#X connect 1 0 34 0;
#X connect 3 0 32 0;
#X connect 3 0 10 0;
#X connect 5 0 33 0;
#X connect 5 0 7 0;
#X connect 7 0 9 0;
#X connect 7 1 30 0;
#X connect 8 0 4 0;
#X connect 9 0 8 0;
#X connect 10 0 12 0;
#X connect 10 1 29 0;
#X connect 11 0 4 0;
#X connect 12 0 11 0;
#X connect 13 0 5 0;
#X connect 14 0 3 0;
#X connect 16 0 21 0;
#X connect 17 0 18 0;
#X connect 18 0 4 0;
#X connect 19 0 4 0;
#X connect 20 0 36 0;
#X connect 21 0 17 0;
#X connect 22 0 23 0;
#X connect 23 0 19 0;
#X connect 23 0 26 0;
#X connect 25 0 0 0;
#X connect 26 0 28 0;
#X connect 26 1 31 0;
#X connect 27 0 4 0;
#X connect 28 0 27 0;
#X connect 29 0 25 0;
#X connect 30 0 1 0;
#X connect 31 0 20 0;
#X connect 32 0 4 0;
#X connect 33 0 4 0;
#X connect 34 0 35 0;
#X connect 36 0 37 0;
#X restore 447 49 pd network;
#X f 20;
#X obj 718 258 r receiver;
#X obj 447 21 tgl 15 0 empty empty empty 17 7 0 10 -262144 -1 -1 0
1;
#X obj 515 20 tgl 15 0 empty empty empty 17 7 0 10 -262144 -1 -1 0
1;
#X text 461 17 client;
#X text 534 17 host;
#N canvas 0 23 1280 707 pulseTouchShaping 0;
#X obj 25 36 inlet;
#X obj 31 361 outlet;
#X obj 108 360 outlet;
#X floatatom 224 86 5 0 0 0 - - -;
#X floatatom 289 86 5 0 0 0 - - -;
#X text 96 104 inMin inMax outMin outMax;
#X obj 27 120 expr ($f1-$f2)*($f5-$f4)/($f3-$f2)+$f4;
#X floatatom 92 85 5 0 0 0 - - -;
#X floatatom 158 85 5 0 0 0 - - -;
#X msg 157 60 127;
#X msg 289 60 36;
#X obj 157 23 loadbang;
#X floatatom 108 287 5 0 0 0 - - -;
#X obj 108 174 f;
#X obj 58 152 t b f f;
#X obj 108 232 abs;
#X obj 108 205 -;
#X obj 108 259 * 100;
#X text 122 149 rate of change = duration;
#X text 169 359 outlets should go to makenote object;
#X connect 0 0 6 0;
#X connect 0 0 14 0;
#X connect 3 0 6 3;
#X connect 4 0 6 4;
#X connect 6 0 1 0;
#X connect 7 0 6 1;
#X connect 8 0 6 2;
#X connect 9 0 8 0;
#X connect 10 0 4 0;
#X connect 11 0 9 0;
#X connect 11 0 10 0;
#X connect 12 0 2 0;
#X connect 13 0 16 0;
#X connect 14 1 16 1;
#X connect 14 2 13 0;
#X connect 15 0 17 0;
#X connect 16 0 15 0;
#X connect 17 0 12 0;
#X restore 670 574 pd pulseTouchShaping;
#N canvas 166 23 1012 664 thermTouchShaping 0;
#X floatatom 658 159 5 0 0 0 - - -;
#X obj 658 193 expr ($f1-$f2)*($f5-$f4)/($f3-$f2)+$f4;
#X floatatom 855 158 5 0 0 0 - - -;
#X floatatom 921 159 5 0 0 0 - - -;
#X floatatom 725 157 5 0 0 0 - - -;
#X floatatom 788 157 5 0 0 0 - - -;
#X text 746 175 inMin inMax outMin outMax;
#X msg 787 130 127;
#X obj 819 96 loadbang;
#X msg 854 130 1000;
#X msg 921 129 5000;
#X obj 646 13 inlet;
#X obj 316 341 outlet;
#X obj 661 341 outlet;
#X obj 647 108 moses 40;
#X msg 725 129 40;
#X floatatom 317 176 5 0 0 0 - - -;
#X obj 317 210 expr ($f1-$f2)*($f5-$f4)/($f3-$f2)+$f4;
#X floatatom 514 175 5 0 0 0 - - -;
#X floatatom 580 176 5 0 0 0 - - -;
#X floatatom 384 174 5 0 0 0 - - -;
#X floatatom 447 174 5 0 0 0 - - -;
#X text 405 192 inMin inMax outMin outMax;
#X msg 446 147 127;
#X msg 384 146 40;
#X msg 514 148 0;
#X msg 580 146 127;
#X obj 436 86 loadbang;
#X connect 0 0 1 0;
#X connect 1 0 13 0;
#X connect 2 0 1 3;
#X connect 3 0 1 4;
#X connect 4 0 1 1;
#X connect 5 0 1 2;
#X connect 7 0 5 0;
#X connect 8 0 7 0;
#X connect 8 0 15 0;
#X connect 8 0 9 0;
#X connect 8 0 10 0;
#X connect 9 0 2 0;
#X connect 10 0 3 0;
#X connect 11 0 14 0;
#X connect 14 1 0 0;
#X connect 14 1 16 0;
#X connect 15 0 4 0;
#X connect 16 0 17 0;
#X connect 17 0 12 0;
#X connect 18 0 17 3;
#X connect 19 0 17 4;
#X connect 20 0 17 1;
#X connect 21 0 17 2;
#X connect 23 0 21 0;
#X connect 24 0 20 0;
#X connect 25 0 18 0;
#X connect 26 0 19 0;
#X connect 27 0 24 0;
#X connect 27 0 23 0;
#X connect 27 0 25 0;
#X connect 27 0 26 0;
#X restore 506 573 pd thermTouchShaping;
#N canvas 185 55 616 402 GSRTouchShaping 0;
#X obj 27 16 inlet;
#X obj 30 515 outlet;
#X obj 246 516 outlet;
#X floatatom 29 83 5 0 0 0 - - -;
#X obj 29 117 expr ($f1-$f2)*($f5-$f4)/($f3-$f2)+$f4;
#X floatatom 228 82 5 0 0 0 - - -;
#X floatatom 283 81 5 0 0 0 - - -;
#X text 94 99 inMin inMax outMin outMax;
#X floatatom 96 81 5 0 0 0 - - -;
#X floatatom 162 81 5 0 0 0 - - -;
#X msg 282 46 127;
#X obj 283 21 loadbang;
#X obj 28 50 moses 26;
#X msg 96 56 26;
#X msg 231 49 32;
#X connect 0 0 12 0;
#X connect 3 0 4 0;
#X connect 4 0 1 0;
#X connect 5 0 4 3;
#X connect 6 0 4 4;
#X connect 8 0 4 1;
#X connect 9 0 4 2;
#X connect 10 0 9 0;
#X connect 10 0 6 0;
#X connect 11 0 10 0;
#X connect 11 0 13 0;
#X connect 11 0 14 0;
#X connect 12 1 3 0;
#X connect 13 0 8 0;
#X connect 14 0 5 0;
#X restore 357 572 pd GSRTouchShaping;
#X obj 696 696 loadbang;
#X text 17 671 jen's notes to jen;
#X text 151 32 or host to connect to the other user;
#X text 35 18 instructions: 1 select the box for whether you are client
;
#X text 135 81 2 go to Media>MIDI Settings and select output;
#X text 148 97 "Being Touched" then select "Use Multiple Devices";
#X text 154 113 and select output "IAC Driver Bus 1";
#X text 137 153 3 open ableton live. create a MIDI track.;
#X text 152 170 under input for that track \, select "IAC Driver Bus
1";
#X text 151 186 for channel \, select 1 for GSR \, 2 for Breath \,
3 for Pulse;
#X text 152 219 note: if "IAC Driver Bus 1" is not an option \, go
to audio;
#X text 153 235 MIDI setup in Applications/Utilities/ and make sure
that;
#X text 153 249 the IAC Driver Bus is enabled;
#X obj 718 290 oscparse;
#X obj 718 318 list trim;
#X obj 718 346 route biodata;
#X obj 354 469 unpack, f 7;
#X floatatom 400 526 5 0 0 0 - - -;
#X text 412 469 GSR;
#X obj 674 469 unpack 0 0 0, f 13;
#X obj 514 469 unpack 0 0 0, f 13;
#X text 615 470 RESP;
#X floatatom 558 524 5 0 0 0 - - -;
#X floatatom 602 524 5 0 0 0 - - -;
#X floatatom 719 526 5 0 0 0 - - -;
#X floatatom 763 526 5 0 0 0 - - -;
#X text 405 508 Lowpass;
#X text 347 508 Hipass;
#X text 502 505 Signal;
#X text 670 507 Signal;
#X text 556 503 BPMch;
#X text 718 507 BPMch;
#X text 606 502 AMPch;
#X text 765 507 AMPch;
#X obj 584 21 tgl 15 0 empty empty empty 17 7 0 10 -262144 -1 -1 0
1;
#X text 603 18 local;
#X msg 696 723 20;
#X text 21 466 1-3 erin;
#X text 23 492 8-10 jen;
#X text 22 517 5-7 tea leaves;
#X floatatom 863 529 5 0 0 0 - - -;
#X floatatom 1021 526 5 0 0 0 - - -;
#X floatatom 1184 528 5 0 0 0 - - -;
#X obj 1180 614 makenote 127;
#X obj 871 653 makenote 127;
#X obj 1025 833 noteout;
#X floatatom 1205 753 5 0 0 0 - - -;
#X text 1296 472 pulse;
#N canvas 0 23 1280 707 pulseTouchShaping 0;
#X obj 25 36 inlet;
#X obj 31 361 outlet;
#X obj 108 360 outlet;
#X floatatom 224 86 5 0 0 0 - - -;
#X floatatom 289 86 5 0 0 0 - - -;
#X text 96 104 inMin inMax outMin outMax;
#X obj 27 120 expr ($f1-$f2)*($f5-$f4)/($f3-$f2)+$f4;
#X floatatom 92 85 5 0 0 0 - - -;
#X floatatom 158 85 5 0 0 0 - - -;
#X msg 157 60 127;
#X msg 289 60 36;
#X obj 157 23 loadbang;
#X floatatom 108 287 5 0 0 0 - - -;
#X obj 108 174 f;
#X obj 58 152 t b f f;
#X obj 108 232 abs;
#X obj 108 205 -;
#X obj 108 259 * 100;
#X text 122 149 rate of change = duration;
#X text 169 359 outlets should go to makenote object;
#X connect 0 0 6 0;
#X connect 0 0 14 0;
#X connect 3 0 6 3;
#X connect 4 0 6 4;
#X connect 6 0 1 0;
#X connect 7 0 6 1;
#X connect 8 0 6 2;
#X connect 9 0 8 0;
#X connect 10 0 4 0;
#X connect 11 0 9 0;
#X connect 11 0 10 0;
#X connect 12 0 2 0;
#X connect 13 0 16 0;
#X connect 14 1 16 1;
#X connect 14 2 13 0;
#X connect 15 0 17 0;
#X connect 16 0 15 0;
#X connect 17 0 12 0;
#X restore 1179 577 pd pulseTouchShaping;
#N canvas 166 23 1012 664 thermTouchShaping 0;
#X floatatom 658 159 5 0 0 0 - - -;
#X obj 658 193 expr ($f1-$f2)*($f5-$f4)/($f3-$f2)+$f4;
#X floatatom 855 158 5 0 0 0 - - -;
#X floatatom 921 159 5 0 0 0 - - -;
#X floatatom 725 157 5 0 0 0 - - -;
#X floatatom 788 157 5 0 0 0 - - -;
#X text 746 175 inMin inMax outMin outMax;
#X msg 787 130 127;
#X obj 819 96 loadbang;
#X msg 854 130 1000;
#X msg 921 129 5000;
#X obj 646 13 inlet;
#X obj 316 341 outlet;
#X obj 661 341 outlet;
#X obj 647 108 moses 40;
#X msg 725 129 40;
#X floatatom 317 176 5 0 0 0 - - -;
#X obj 317 210 expr ($f1-$f2)*($f5-$f4)/($f3-$f2)+$f4;
#X floatatom 514 175 5 0 0 0 - - -;
#X floatatom 580 176 5 0 0 0 - - -;
#X floatatom 384 174 5 0 0 0 - - -;
#X floatatom 447 174 5 0 0 0 - - -;
#X text 405 192 inMin inMax outMin outMax;
#X msg 446 147 127;
#X msg 384 146 40;
#X msg 514 148 0;
#X msg 580 146 127;
#X obj 436 86 loadbang;
#X connect 0 0 1 0;
#X connect 1 0 13 0;
#X connect 2 0 1 3;
#X connect 3 0 1 4;
#X connect 4 0 1 1;
#X connect 5 0 1 2;
#X connect 7 0 5 0;
#X connect 8 0 7 0;
#X connect 8 0 15 0;
#X connect 8 0 9 0;
#X connect 8 0 10 0;
#X connect 9 0 2 0;
#X connect 10 0 3 0;
#X connect 11 0 14 0;
#X connect 14 1 0 0;
#X connect 14 1 16 0;
#X connect 15 0 4 0;
#X connect 16 0 17 0;
#X connect 17 0 12 0;
#X connect 18 0 17 3;
#X connect 19 0 17 4;
#X connect 20 0 17 1;
#X connect 21 0 17 2;
#X connect 23 0 21 0;
#X connect 24 0 20 0;
#X connect 25 0 18 0;
#X connect 26 0 19 0;
#X connect 27 0 24 0;
#X connect 27 0 23 0;
#X connect 27 0 25 0;
#X connect 27 0 26 0;
#X restore 1015 576 pd thermTouchShaping;
#N canvas 185 55 616 402 GSRTouchShaping 0;
#X obj 27 16 inlet;
#X obj 30 515 outlet;
#X obj 246 516 outlet;
#X floatatom 29 83 5 0 0 0 - - -;
#X obj 29 117 expr ($f1-$f2)*($f5-$f4)/($f3-$f2)+$f4;
#X floatatom 228 82 5 0 0 0 - - -;
#X floatatom 283 81 5 0 0 0 - - -;
#X text 94 99 inMin inMax outMin outMax;
#X floatatom 96 81 5 0 0 0 - - -;
#X floatatom 162 81 5 0 0 0 - - -;
#X msg 282 46 127;
#X obj 283 21 loadbang;
#X obj 28 50 moses 26;
#X msg 96 56 26;
#X msg 231 49 32;
#X connect 0 0 12 0;
#X connect 3 0 4 0;
#X connect 4 0 1 0;
#X connect 5 0 4 3;
#X connect 6 0 4 4;
#X connect 8 0 4 1;
#X connect 9 0 4 2;
#X connect 10 0 9 0;
#X connect 10 0 6 0;
#X connect 11 0 10 0;
#X connect 11 0 13 0;
#X connect 11 0 14 0;
#X connect 12 1 3 0;
#X connect 13 0 8 0;
#X connect 14 0 5 0;
#X restore 866 575 pd GSRTouchShaping;
#X obj 1205 699 loadbang;
#X obj 863 472 unpack, f 7;
#X floatatom 909 529 5 0 0 0 - - -;
#X text 921 472 GSR;
#X obj 1183 472 unpack 0 0 0, f 13;
#X obj 1023 472 unpack 0 0 0, f 13;
#X text 1124 473 RESP;
#X floatatom 1067 527 5 0 0 0 - - -;
#X floatatom 1111 527 5 0 0 0 - - -;
#X floatatom 1228 529 5 0 0 0 - - -;
#X text 914 511 Lowpass;
#X text 856 511 Hipass;
#X text 1011 508 Signal;
#X text 1179 510 Signal;
#X text 1065 506 BPMch;
#X text 1227 510 BPMch;
#X text 1115 505 AMPch;
#X text 1274 510 AMPch;
#X msg 1205 725 21;
#X obj 563 399 route /jengsr /jentherm /jenpulse /eringsr /erintherm
/erinpulse, f 69;
#X text 523 435 jen;
#X text 1031 447 erin;
#X connect 5 0 23 0;
#X connect 6 0 22 0;
#X connect 7 0 21 0;
#X connect 9 0 11 0;
#X connect 9 1 11 1;
#X connect 10 0 11 0;
#X connect 10 1 11 1;
#X connect 12 0 11 2;
#X connect 16 0 37 0;
#X connect 17 0 15 0;
#X connect 18 0 15 1;
#X connect 21 0 9 0;
#X connect 21 0 9 1;
#X connect 21 1 9 2;
#X connect 22 0 10 1;
#X connect 22 1 10 2;
#X connect 23 0 10 0;
#X connect 24 0 60 0;
#X connect 37 0 38 0;
#X connect 38 0 39 0;
#X connect 39 0 94 0;
#X connect 40 0 5 0;
#X connect 40 1 41 0;
#X connect 43 0 7 0;
#X connect 43 1 48 0;
#X connect 43 2 49 0;
#X connect 44 0 6 0;
#X connect 44 1 46 0;
#X connect 44 2 47 0;
#X connect 58 0 15 2;
#X connect 60 0 12 0;
#X connect 64 0 74 0;
#X connect 65 0 73 0;
#X connect 66 0 72 0;
#X connect 67 0 69 0;
#X connect 67 1 69 1;
#X connect 68 0 69 0;
#X connect 68 1 69 1;
#X connect 70 0 69 2;
#X connect 72 0 67 0;
#X connect 72 0 67 1;
#X connect 72 1 67 2;
#X connect 73 0 68 1;
#X connect 73 1 68 2;
#X connect 74 0 68 0;
#X connect 75 0 93 0;
#X connect 76 0 64 0;
#X connect 76 1 77 0;
#X connect 79 0 66 0;
#X connect 79 1 84 0;
#X connect 80 0 65 0;
#X connect 80 1 82 0;
#X connect 80 2 83 0;
#X connect 93 0 70 0;
#X connect 94 0 40 0;
#X connect 94 1 44 0;
#X connect 94 2 43 0;
#X connect 94 3 76 0;
#X connect 94 4 80 0;
#X connect 94 5 79 0;
