#N canvas 171 63 867 706 12;
#X text 510 856 touch simulation output;
#X text 18 686 CCchannel 1 - GSR;
#X text 18 698 CCchannel 2 - Thermistor;
#X text 18 711 CCchannel 3 - Pulse;
#X text 19 723 value||controller#||channel;
#X floatatom 354 526 5 0 0 0 - - -;
#X floatatom 512 523 5 0 0 0 - - -;
#X floatatom 675 525 5 0 0 0 - - -;
#X text 18 765 thermistor: will generate a steady "legato" pulse when
the value is above 67 with the duration controlled by GSR when GSR
is above 55;
#X obj 676 752 makenote 127;
#X obj 460 747 makenote 127;
#X obj 516 830 noteout;
#X floatatom 562 805 5 0 0 0 - - -;
#X text 19 738 pulse: pulse will generate a short low pitched tens
frequency when a pulse is detected;
#X text 787 469 pulse;
#N canvas 408 76 948 655 network 0;
#X obj 515 531 netreceive -u -b;
#X msg 665 501 listen 7401;
#X text 106 101 client;
#X obj 88 103 tgl 15 0 empty empty empty 17 7 0 10 -262144 -1 -1 0
1;
#X obj 181 540 netsend -u -b;
#X obj 305 105 tgl 15 0 empty empty empty 17 7 0 10 -262144 -1 -1 0
1;
#X text 320 102 host;
#X obj 240 179 sel 0;
#X msg 240 224 disconnect;
#X obj 240 203 bng 15 250 50 0 empty empty empty 17 7 0 10 -262144
-1 -1;
#X obj 43 179 sel 0;
#X msg 43 224 disconnect;
#X obj 43 204 bng 15 250 50 0 empty empty empty 17 7 0 10 -262144 -1
-1;
#X obj 304 41 inlet;
#X obj 88 41 inlet;
#X obj 516 595 s receiver;
#X obj 685 174 r sender;
#X obj 684 232 list prepend send;
#X obj 684 259 list trim;
#X msg 764 501 listen 3001;
#X obj 685 206 oscformat /biodata;
#X obj 444 41 inlet;
#X obj 444 103 tgl 15 0 empty empty empty 17 7 0 10 -262144 -1 -1 0
1;
#X msg 516 499 listen 7403;
#X obj 448 180 sel 0;
#X msg 448 225 disconnect;
#X obj 448 205 bng 15 250 50 0 empty empty empty 17 7 0 10 -262144
-1 -1;
#X obj 516 476 bng 15 250 50 0 empty empty empty 17 7 0 10 -262144
-1 -1;
#X obj 664 473 bng 15 250 50 0 empty empty empty 17 7 0 10 -262144
-1 -1;
#X obj 764 471 bng 15 250 50 0 empty empty empty 17 7 0 10 -262144
-1 -1;
#X msg 29 254 connect localhost 7404;
#X msg 230 257 connect localhost 7402;
#X obj 667 561 netreceive -u -b;
#X obj 666 590 s receiver;
#X obj 805 552 netreceive -u -b;
#X obj 804 581 s receiver;
#X text 459 100 localtest;
#X msg 435 256 connect localhost 3000;
#X connect 0 0 15 0;
#X connect 1 0 32 0;
#X connect 3 0 30 0;
#X connect 3 0 10 0;
#X connect 5 0 31 0;
#X connect 5 0 7 0;
#X connect 7 0 9 0;
#X connect 7 1 28 0;
#X connect 8 0 4 0;
#X connect 9 0 8 0;
#X connect 10 0 12 0;
#X connect 10 1 27 0;
#X connect 11 0 4 0;
#X connect 12 0 11 0;
#X connect 13 0 5 0;
#X connect 14 0 3 0;
#X connect 16 0 20 0;
#X connect 17 0 18 0;
#X connect 18 0 4 0;
#X connect 19 0 34 0;
#X connect 20 0 17 0;
#X connect 21 0 22 0;
#X connect 22 0 37 0;
#X connect 22 0 24 0;
#X connect 23 0 0 0;
#X connect 24 0 26 0;
#X connect 24 1 29 0;
#X connect 26 0 25 0;
#X connect 27 0 23 0;
#X connect 28 0 1 0;
#X connect 29 0 19 0;
#X connect 30 0 4 0;
#X connect 31 0 4 0;
#X connect 32 0 33 0;
#X connect 34 0 35 0;
#X connect 37 0 4 0;
#X restore 447 49 pd network;
#X f 20;
#X obj 354 308 r receiver;
#X obj 447 21 tgl 15 0 empty empty empty 17 7 0 10 -262144 -1 -1 0
1;
#X obj 515 20 tgl 15 0 empty empty empty 17 7 0 10 -262144 -1 -1 0
1;
#X text 461 17 client;
#X text 534 17 host;
#N canvas 0 23 1280 707 pulseTouchShaping 0;
#X obj 25 36 inlet;
#X obj 31 361 outlet;
#X obj 108 360 outlet;
#X floatatom 224 86 5 0 0 0 - - -;
#X floatatom 289 86 5 0 0 0 - - -;
#X text 96 104 inMin inMax outMin outMax;
#X obj 27 120 expr ($f1-$f2)*($f5-$f4)/($f3-$f2)+$f4;
#X floatatom 92 85 5 0 0 0 - - -;
#X floatatom 158 85 5 0 0 0 - - -;
#X msg 157 60 127;
#X msg 289 60 36;
#X obj 157 23 loadbang;
#X floatatom 108 287 5 0 0 0 - - -;
#X obj 108 174 f;
#X obj 58 152 t b f f;
#X obj 108 232 abs;
#X obj 108 205 -;
#X obj 108 259 * 100;
#X text 122 149 rate of change = duration;
#X text 169 359 outlets should go to makenote object;
#X connect 0 0 6 0;
#X connect 0 0 14 0;
#X connect 3 0 6 3;
#X connect 4 0 6 4;
#X connect 6 0 1 0;
#X connect 7 0 6 1;
#X connect 8 0 6 2;
#X connect 9 0 8 0;
#X connect 10 0 4 0;
#X connect 11 0 9 0;
#X connect 11 0 10 0;
#X connect 12 0 2 0;
#X connect 13 0 16 0;
#X connect 14 1 16 1;
#X connect 14 2 13 0;
#X connect 15 0 17 0;
#X connect 16 0 15 0;
#X connect 17 0 12 0;
#X restore 674 695 pd pulseTouchShaping;
#N canvas 166 23 1012 664 thermTouchShaping 0;
#X floatatom 658 159 5 0 0 0 - - -;
#X obj 658 193 expr ($f1-$f2)*($f5-$f4)/($f3-$f2)+$f4;
#X floatatom 855 158 5 0 0 0 - - -;
#X floatatom 921 159 5 0 0 0 - - -;
#X floatatom 725 157 5 0 0 0 - - -;
#X floatatom 788 157 5 0 0 0 - - -;
#X text 746 175 inMin inMax outMin outMax;
#X msg 787 130 127;
#X obj 819 96 loadbang;
#X msg 854 130 1000;
#X msg 921 129 5000;
#X obj 646 13 inlet;
#X obj 316 341 outlet;
#X obj 661 341 outlet;
#X obj 647 108 moses 40;
#X msg 725 129 40;
#X floatatom 317 176 5 0 0 0 - - -;
#X obj 317 210 expr ($f1-$f2)*($f5-$f4)/($f3-$f2)+$f4;
#X floatatom 514 175 5 0 0 0 - - -;
#X floatatom 580 176 5 0 0 0 - - -;
#X floatatom 384 174 5 0 0 0 - - -;
#X floatatom 447 174 5 0 0 0 - - -;
#X text 405 192 inMin inMax outMin outMax;
#X msg 446 147 127;
#X msg 384 146 40;
#X msg 514 148 0;
#X msg 580 146 127;
#X obj 436 86 loadbang;
#X connect 0 0 1 0;
#X connect 1 0 13 0;
#X connect 2 0 1 3;
#X connect 3 0 1 4;
#X connect 4 0 1 1;
#X connect 5 0 1 2;
#X connect 7 0 5 0;
#X connect 8 0 7 0;
#X connect 8 0 15 0;
#X connect 8 0 9 0;
#X connect 8 0 10 0;
#X connect 9 0 2 0;
#X connect 10 0 3 0;
#X connect 11 0 14 0;
#X connect 14 1 0 0;
#X connect 14 1 16 0;
#X connect 15 0 4 0;
#X connect 16 0 17 0;
#X connect 17 0 12 0;
#X connect 18 0 17 3;
#X connect 19 0 17 4;
#X connect 20 0 17 1;
#X connect 21 0 17 2;
#X connect 23 0 21 0;
#X connect 24 0 20 0;
#X connect 25 0 18 0;
#X connect 26 0 19 0;
#X connect 27 0 24 0;
#X connect 27 0 23 0;
#X connect 27 0 25 0;
#X connect 27 0 26 0;
#X restore 508 693 pd thermTouchShaping;
#N canvas 185 55 616 402 GSRTouchShaping 0;
#X obj 27 16 inlet;
#X obj 30 515 outlet;
#X obj 246 516 outlet;
#X floatatom 29 83 5 0 0 0 - - -;
#X obj 29 117 expr ($f1-$f2)*($f5-$f4)/($f3-$f2)+$f4;
#X floatatom 228 82 5 0 0 0 - - -;
#X floatatom 283 81 5 0 0 0 - - -;
#X text 94 99 inMin inMax outMin outMax;
#X floatatom 96 81 5 0 0 0 - - -;
#X floatatom 162 81 5 0 0 0 - - -;
#X msg 282 46 127;
#X obj 283 21 loadbang;
#X obj 28 50 moses 26;
#X msg 96 56 26;
#X msg 231 49 32;
#X connect 0 0 12 0;
#X connect 3 0 4 0;
#X connect 4 0 1 0;
#X connect 5 0 4 3;
#X connect 6 0 4 4;
#X connect 8 0 4 1;
#X connect 9 0 4 2;
#X connect 10 0 9 0;
#X connect 10 0 6 0;
#X connect 11 0 10 0;
#X connect 11 0 13 0;
#X connect 11 0 14 0;
#X connect 12 1 3 0;
#X connect 13 0 8 0;
#X connect 14 0 5 0;
#X restore 353 699 pd GSRTouchShaping;
#X obj 562 751 loadbang;
#X text 17 671 jen's notes to jen;
#X text 151 32 or host to connect to the other user;
#X text 35 18 instructions: 1 select the box for whether you are client
;
#X text 135 81 2 go to Media>MIDI Settings and select output;
#X text 148 97 "Being Touched" then select "Use Multiple Devices";
#X text 154 113 and select output "IAC Driver Bus 1";
#X text 137 153 3 open ableton live. create a MIDI track.;
#X text 152 170 under input for that track \, select "IAC Driver Bus
1";
#X text 151 186 for channel \, select 1 for GSR \, 2 for Breath \,
3 for Pulse;
#X text 152 219 note: if "IAC Driver Bus 1" is not an option \, go
to audio;
#X text 153 235 MIDI setup in Applications/Utilities/ and make sure
that;
#X text 153 249 the IAC Driver Bus is enabled;
#X obj 354 340 oscparse;
#X obj 354 368 list trim;
#X obj 354 396 route biodata;
#X obj 354 469 unpack, f 7;
#X floatatom 400 526 5 0 0 0 - - -;
#N canvas 200 186 450 300 gsr 0;
#X obj 154 46 ctlin 1;
#X obj 239 49 ctlin 2;
#X obj 152 261 s sender;
#X floatatom 154 72 5 0 0 0 - - -;
#X floatatom 239 75 5 0 0 0 - - -;
#X obj 153 107 pak;
#X text 236 22 SCL - lo-passed;
#X text 95 21 SCR - hi-passed;
#X obj 86 140 outlet;
#X obj 376 142 outlet;
#X obj 153 140 list prepend /eringsr;
#X connect 0 0 3 0;
#X connect 1 0 4 0;
#X connect 3 0 5 0;
#X connect 3 0 8 0;
#X connect 4 0 5 1;
#X connect 4 0 9 0;
#X connect 5 0 10 0;
#X connect 10 0 2 0;
#X restore 210 310 pd gsr;
#X floatatom 209 397 5 0 0 0 - - -;
#N canvas 586 142 606 367 resp 0;
#X obj 81 87 ctlin 3;
#X obj 81 230 s sender;
#X obj 155 89 ctlin 4;
#X obj 232 88 ctlin 5;
#X floatatom 81 118 5 0 0 0 - - -;
#X floatatom 156 117 5 0 0 0 - - -;
#X floatatom 232 119 5 0 0 0 - - -;
#X obj 8 171 outlet;
#X obj 81 148 pak 0 0 0, f 22;
#X text 79 62 RespRaw;
#X text 152 62 RespBPMch;
#X text 231 62 RespAMPch;
#X obj 328 174 outlet;
#X obj 416 174 outlet;
#X obj 81 191 list prepend /erintherm;
#X connect 0 0 4 0;
#X connect 2 0 5 0;
#X connect 3 0 6 0;
#X connect 4 0 7 0;
#X connect 4 0 8 0;
#X connect 5 0 8 1;
#X connect 5 0 12 0;
#X connect 6 0 8 2;
#X connect 6 0 13 0;
#X connect 8 0 14 0;
#X connect 14 0 1 0;
#X restore 140 310 pd resp;
#X floatatom 140 396 5 0 0 0 - - -;
#N canvas 615 232 434 372 pulse 0;
#X obj 106 253 s sender;
#X floatatom 102 108 5 0 0 0 - - -;
#X floatatom 182 99 5 0 0 0 - - -;
#X floatatom 258 101 5 0 0 0 - - -;
#X obj 29 169 outlet;
#X obj 107 180 pak 0 0 0, f 22;
#X obj 107 69 ctlin 6;
#X obj 181 71 ctlin 7;
#X obj 258 70 ctlin 8;
#X text 105 44 PulseRaw;
#X text 178 44 PulseBPMch;
#X text 257 44 PulseAMPch;
#X obj 285 222 outlet;
#X obj 348 224 outlet;
#X obj 106 220 list prepend /erinpulse;
#X connect 1 0 4 0;
#X connect 1 0 5 0;
#X connect 2 0 5 1;
#X connect 2 0 12 0;
#X connect 3 0 5 2;
#X connect 3 0 13 0;
#X connect 5 0 14 0;
#X connect 6 0 1 0;
#X connect 7 0 2 0;
#X connect 8 0 3 0;
#X connect 14 0 0 0;
#X restore 73 310 pd pulse;
#X floatatom 75 395 5 0 0 0 - - -;
#X text 412 469 GSR;
#X obj 674 469 unpack 0 0 0, f 13;
#X obj 514 469 unpack 0 0 0, f 13;
#X text 615 470 RESP;
#X floatatom 558 524 5 0 0 0 - - -;
#X floatatom 602 524 5 0 0 0 - - -;
#X floatatom 719 526 5 0 0 0 - - -;
#X floatatom 763 526 5 0 0 0 - - -;
#X text 405 508 Lowpass;
#X text 347 508 Hipass;
#X text 502 505 Signal;
#X text 670 507 Signal;
#X text 556 503 BPMch;
#X text 718 507 BPMch;
#X text 606 502 AMPch;
#X text 765 507 AMPch;
#X obj 584 21 tgl 15 0 empty empty empty 17 7 0 10 -262144 -1 -1 0
1;
#X text 603 18 local;
#X text 72 285 MY DATA;
#X text 352 283 YOUR DATA;
#N canvas -1208 -410 525 528 GSRToLive 0;
#X obj 47 99 line;
#X floatatom 47 128 5 0 0 0 - - -;
#X msg 47 70 \$1 500;
#X obj 47 42 inlet;
#N canvas 356 119 924 592 EZscale 0;
#X floatatom 61 97 5 0 0 0 - - -;
#X obj 62 120 sel 1 3 6 8 10 13 15 18 20 22 25 27 30 32 34 37 39 42
44 46 49 51 54 56 58 61 63 66 68 70 73 75 78 80 82 85 87 90 92 94 97
99 102 104 106 109 111 114 116 118 121 123 126;
#X obj 60 58 inlet;
#X obj 200 412 outlet;
#X floatatom 315 316 5 0 0 0 - - -;
#X floatatom 200 389 5 0 0 0 - - -;
#X obj 201 361 + 1, f 4;
#X obj 223 236 funnel 53;
#X floatatom 201 340 5 0 0 0 - - -;
#X obj 225 272 bng 15 250 50 0 empty empty empty 17 7 0 10 -262144
-1 -1;
#X obj 201 318 spigot;
#X msg 256 292 0;
#X msg 225 293 1;
#X obj 256 272 bng 15 250 50 0 empty empty empty 17 7 0 10 -262144
-1 -1;
#X connect 0 0 1 0;
#X connect 0 0 10 0;
#X connect 1 0 7 0;
#X connect 1 1 7 1;
#X connect 1 2 7 2;
#X connect 1 3 7 3;
#X connect 1 4 7 4;
#X connect 1 5 7 5;
#X connect 1 6 7 6;
#X connect 1 7 7 7;
#X connect 1 8 7 8;
#X connect 1 9 7 9;
#X connect 1 10 7 10;
#X connect 1 11 7 11;
#X connect 1 12 7 12;
#X connect 1 13 7 13;
#X connect 1 14 7 14;
#X connect 1 15 7 15;
#X connect 1 16 7 16;
#X connect 1 17 7 17;
#X connect 1 18 7 18;
#X connect 1 19 7 19;
#X connect 1 20 7 20;
#X connect 1 21 7 21;
#X connect 1 22 7 22;
#X connect 1 23 7 23;
#X connect 1 24 7 24;
#X connect 1 25 7 25;
#X connect 1 26 7 26;
#X connect 1 27 7 27;
#X connect 1 28 7 28;
#X connect 1 29 7 29;
#X connect 1 30 7 30;
#X connect 1 31 7 31;
#X connect 1 32 7 32;
#X connect 1 33 7 33;
#X connect 1 34 7 34;
#X connect 1 35 7 35;
#X connect 1 36 7 36;
#X connect 1 37 7 37;
#X connect 1 38 7 38;
#X connect 1 39 7 39;
#X connect 1 40 7 40;
#X connect 1 41 7 41;
#X connect 1 42 7 42;
#X connect 1 43 7 43;
#X connect 1 44 7 44;
#X connect 1 45 7 45;
#X connect 1 46 7 46;
#X connect 1 47 7 47;
#X connect 1 48 7 48;
#X connect 1 49 7 49;
#X connect 1 50 7 50;
#X connect 1 51 7 51;
#X connect 1 52 7 52;
#X connect 1 53 4 0;
#X connect 1 53 13 0;
#X connect 2 0 0 0;
#X connect 4 0 5 0;
#X connect 5 0 3 0;
#X connect 6 0 5 0;
#X connect 7 0 9 0;
#X connect 8 0 6 0;
#X connect 9 0 12 0;
#X connect 10 0 8 0;
#X connect 11 0 10 1;
#X connect 12 0 10 1;
#X connect 13 0 11 0;
#X restore 132 113 pd EZscale;
#X obj 131 385 makenote;
#X obj 223 87 t f f;
#X obj 255 119 f;
#X obj 255 148 -;
#X obj 255 175 abs;
#X obj 133 473 noteout;
#X obj 158 237 metro 250;
#X obj 158 215 tgl 15 0 empty empty empty 17 7 0 10 -262144 -1 -1 1
1;
#X floatatom 255 197 5 0 0 0 - - -;
#X floatatom 160 297 5 0 0 0 - - -;
#X obj 161 325 clip 0 127;
#X obj 158 185 loadbang;
#X floatatom 180 449 5 0 0 0 - - -;
#X floatatom 131 15 5 0 0 0 - - -;
#X obj 255 220 + 1;
#X obj 255 274 * 3000;
#X obj 255 249 * -1;
#X obj 255 299 abs;
#X floatatom 255 323 5 0 0 0 - - -;
#X obj 158 263 drunk 127 26;
#X msg 180 425 1;
#X obj 47 157 ctlout 11 1;
#X obj 63 297 spigot 1;
#X obj 116 278 tgl 15 0 empty empty empty 17 7 0 10 -262144 -1 -1 0
1;
#X msg 116 218 1;
#X msg 116 243 0;
#X obj 115 186 sel 0;
#X obj 351 37 inlet;
#X msg 351 66 \$1 500;
#X obj 351 93 line;
#X floatatom 351 122 5 0 0 0 - - -;
#X obj 352 150 ctlout 14 1;
#X obj 11 218 moses 40;
#X floatatom 23 259 5 0 0 0 - - -;
#X obj 171 45 * 2;
#X obj 18 355 moses 90;
#X connect 0 0 1 0;
#X connect 1 0 26 0;
#X connect 2 0 0 0;
#X connect 3 0 2 0;
#X connect 3 0 18 0;
#X connect 4 0 6 0;
#X connect 4 0 37 0;
#X connect 5 0 10 0;
#X connect 5 1 10 1;
#X connect 5 1 31 0;
#X connect 6 0 8 1;
#X connect 6 1 7 0;
#X connect 7 0 8 0;
#X connect 8 0 9 0;
#X connect 9 0 13 0;
#X connect 11 0 24 0;
#X connect 12 0 11 0;
#X connect 13 0 19 0;
#X connect 14 0 15 0;
#X connect 15 0 5 1;
#X connect 16 0 12 0;
#X connect 16 0 25 0;
#X connect 17 0 10 2;
#X connect 18 0 39 0;
#X connect 19 0 21 0;
#X connect 19 0 24 2;
#X connect 20 0 22 0;
#X connect 21 0 20 0;
#X connect 22 0 23 0;
#X connect 23 0 15 2;
#X connect 23 0 5 2;
#X connect 24 0 14 0;
#X connect 25 0 17 0;
#X connect 27 0 5 0;
#X connect 28 0 27 1;
#X connect 29 0 28 0;
#X connect 30 0 28 0;
#X connect 31 0 29 0;
#X connect 31 1 30 0;
#X connect 32 0 33 0;
#X connect 33 0 34 0;
#X connect 34 0 35 0;
#X connect 35 0 36 0;
#X connect 37 1 38 0;
#X connect 38 0 40 0;
#X connect 39 0 4 0;
#X connect 40 0 27 0;
#X restore 379 657 pd GSRToLive;
#N canvas -950 -287 526 652 thermToLive 0;
#X obj 47 98 line;
#X floatatom 47 127 5 0 0 0 - - -;
#X msg 47 69 \$1 500;
#X obj 47 41 inlet;
#N canvas 356 139 924 592 EZscale 0;
#X floatatom 61 97 5 0 0 0 - - -;
#X obj 62 120 sel 1 3 6 8 10 13 15 18 20 22 25 27 30 32 34 37 39 42
44 46 49 51 54 56 58 61 63 66 68 70 73 75 78 80 82 85 87 90 92 94 97
99 102 104 106 109 111 114 116 118 121 123 126;
#X obj 60 58 inlet;
#X obj 200 412 outlet;
#X floatatom 315 316 5 0 0 0 - - -;
#X floatatom 200 389 5 0 0 0 - - -;
#X obj 201 361 + 1, f 4;
#X obj 223 236 funnel 53;
#X floatatom 201 340 5 0 0 0 - - -;
#X obj 225 272 bng 15 250 50 0 empty empty empty 17 7 0 10 -262144
-1 -1;
#X obj 201 318 spigot;
#X msg 256 292 0;
#X msg 225 293 1;
#X obj 256 272 bng 15 250 50 0 empty empty empty 17 7 0 10 -262144
-1 -1;
#X connect 0 0 1 0;
#X connect 0 0 10 0;
#X connect 1 0 7 0;
#X connect 1 1 7 1;
#X connect 1 2 7 2;
#X connect 1 3 7 3;
#X connect 1 4 7 4;
#X connect 1 5 7 5;
#X connect 1 6 7 6;
#X connect 1 7 7 7;
#X connect 1 8 7 8;
#X connect 1 9 7 9;
#X connect 1 10 7 10;
#X connect 1 11 7 11;
#X connect 1 12 7 12;
#X connect 1 13 7 13;
#X connect 1 14 7 14;
#X connect 1 15 7 15;
#X connect 1 16 7 16;
#X connect 1 17 7 17;
#X connect 1 18 7 18;
#X connect 1 19 7 19;
#X connect 1 20 7 20;
#X connect 1 21 7 21;
#X connect 1 22 7 22;
#X connect 1 23 7 23;
#X connect 1 24 7 24;
#X connect 1 25 7 25;
#X connect 1 26 7 26;
#X connect 1 27 7 27;
#X connect 1 28 7 28;
#X connect 1 29 7 29;
#X connect 1 30 7 30;
#X connect 1 31 7 31;
#X connect 1 32 7 32;
#X connect 1 33 7 33;
#X connect 1 34 7 34;
#X connect 1 35 7 35;
#X connect 1 36 7 36;
#X connect 1 37 7 37;
#X connect 1 38 7 38;
#X connect 1 39 7 39;
#X connect 1 40 7 40;
#X connect 1 41 7 41;
#X connect 1 42 7 42;
#X connect 1 43 7 43;
#X connect 1 44 7 44;
#X connect 1 45 7 45;
#X connect 1 46 7 46;
#X connect 1 47 7 47;
#X connect 1 48 7 48;
#X connect 1 49 7 49;
#X connect 1 50 7 50;
#X connect 1 51 7 51;
#X connect 1 52 7 52;
#X connect 1 53 4 0;
#X connect 1 53 13 0;
#X connect 2 0 0 0;
#X connect 4 0 5 0;
#X connect 5 0 3 0;
#X connect 6 0 5 0;
#X connect 7 0 9 0;
#X connect 8 0 6 0;
#X connect 9 0 12 0;
#X connect 10 0 8 0;
#X connect 11 0 10 1;
#X connect 12 0 10 1;
#X connect 13 0 11 0;
#X restore 132 47 pd EZscale;
#X obj 131 384 makenote;
#X obj 223 86 t f f;
#X obj 255 118 f;
#X obj 255 147 -;
#X obj 255 174 abs;
#X obj 133 472 noteout;
#X obj 158 236 metro 250;
#X obj 158 214 tgl 15 0 empty empty empty 17 7 0 10 -262144 -1 -1 1
1;
#X floatatom 255 196 5 0 0 0 - - -;
#X floatatom 158 314 5 0 0 0 - - -;
#X obj 158 339 clip 0 127;
#X obj 158 184 loadbang;
#X floatatom 180 448 5 0 0 0 - - -;
#X floatatom 131 14 5 0 0 0 - - -;
#X obj 255 219 + 1;
#X obj 255 273 * 3000;
#X obj 255 248 * -1;
#X obj 255 298 abs;
#X floatatom 255 322 5 0 0 0 - - -;
#X obj 158 262 drunk 127 26;
#X msg 180 424 2;
#X obj 47 156 ctlout 12 1;
#X obj 58 338 spigot 1;
#X obj 112 312 tgl 15 0 empty empty empty 17 7 0 10 -262144 -1 -1 0
1;
#X obj 104 200 sel 0;
#X msg 101 234 1;
#X msg 101 261 0;
#X obj 314 99 line;
#X floatatom 314 128 5 0 0 0 - - -;
#X msg 314 70 \$1 500;
#X obj 314 42 inlet;
#X obj 417 100 line;
#X floatatom 417 129 5 0 0 0 - - -;
#X msg 417 71 \$1 500;
#X obj 417 43 inlet;
#X obj 314 157 ctlout 15 1;
#X obj 417 158 ctlout 16 1;
#X obj 31 270 moses 90;
#X floatatom 34 302 5 0 0 0 - - -;
#X obj 201 293 + 25;
#X connect 0 0 1 0;
#X connect 1 0 26 0;
#X connect 2 0 0 0;
#X connect 3 0 2 0;
#X connect 3 0 4 0;
#X connect 4 0 6 0;
#X connect 4 0 42 0;
#X connect 5 0 10 0;
#X connect 5 1 10 1;
#X connect 5 1 29 0;
#X connect 6 0 8 1;
#X connect 6 1 7 0;
#X connect 7 0 8 0;
#X connect 8 0 9 0;
#X connect 9 0 13 0;
#X connect 11 0 24 0;
#X connect 12 0 11 0;
#X connect 13 0 19 0;
#X connect 14 0 15 0;
#X connect 15 0 5 1;
#X connect 16 0 12 0;
#X connect 16 0 25 0;
#X connect 17 0 10 2;
#X connect 18 0 4 0;
#X connect 19 0 21 0;
#X connect 19 0 24 2;
#X connect 20 0 22 0;
#X connect 21 0 20 0;
#X connect 22 0 23 0;
#X connect 23 0 15 2;
#X connect 23 0 5 2;
#X connect 24 0 44 0;
#X connect 25 0 17 0;
#X connect 27 0 5 0;
#X connect 28 0 27 1;
#X connect 29 0 30 0;
#X connect 29 1 31 0;
#X connect 30 0 28 0;
#X connect 31 0 28 0;
#X connect 32 0 33 0;
#X connect 33 0 40 0;
#X connect 34 0 32 0;
#X connect 35 0 34 0;
#X connect 36 0 37 0;
#X connect 37 0 41 0;
#X connect 38 0 36 0;
#X connect 39 0 38 0;
#X connect 42 0 43 0;
#X connect 43 0 27 0;
#X connect 44 0 14 0;
#X restore 529 658 pd thermToLive;
#N canvas -871 -288 516 600 pulseToLive 0;
#X obj 47 98 line;
#X floatatom 47 127 5 0 0 0 - - -;
#X msg 47 69 \$1 500;
#X obj 47 41 inlet;
#N canvas -1003 -231 924 592 EZscale 0;
#X floatatom 61 97 5 0 0 0 - - -;
#X obj 62 120 sel 1 3 6 8 10 13 15 18 20 22 25 27 30 32 34 37 39 42
44 46 49 51 54 56 58 61 63 66 68 70 73 75 78 80 82 85 87 90 92 94 97
99 102 104 106 109 111 114 116 118 121 123 126;
#X obj 60 58 inlet;
#X obj 200 412 outlet;
#X floatatom 315 316 5 0 0 0 - - -;
#X floatatom 200 389 5 0 0 0 - - -;
#X obj 201 361 + 1, f 4;
#X obj 223 236 funnel 53;
#X floatatom 201 340 5 0 0 0 - - -;
#X obj 225 272 bng 15 250 50 0 empty empty empty 17 7 0 10 -262144
-1 -1;
#X obj 201 318 spigot;
#X msg 256 292 0;
#X msg 225 293 1;
#X obj 256 272 bng 15 250 50 0 empty empty empty 17 7 0 10 -262144
-1 -1;
#X connect 0 0 1 0;
#X connect 0 0 10 0;
#X connect 1 0 7 0;
#X connect 1 1 7 1;
#X connect 1 2 7 2;
#X connect 1 3 7 3;
#X connect 1 4 7 4;
#X connect 1 5 7 5;
#X connect 1 6 7 6;
#X connect 1 7 7 7;
#X connect 1 8 7 8;
#X connect 1 9 7 9;
#X connect 1 10 7 10;
#X connect 1 11 7 11;
#X connect 1 12 7 12;
#X connect 1 13 7 13;
#X connect 1 14 7 14;
#X connect 1 15 7 15;
#X connect 1 16 7 16;
#X connect 1 17 7 17;
#X connect 1 18 7 18;
#X connect 1 19 7 19;
#X connect 1 20 7 20;
#X connect 1 21 7 21;
#X connect 1 22 7 22;
#X connect 1 23 7 23;
#X connect 1 24 7 24;
#X connect 1 25 7 25;
#X connect 1 26 7 26;
#X connect 1 27 7 27;
#X connect 1 28 7 28;
#X connect 1 29 7 29;
#X connect 1 30 7 30;
#X connect 1 31 7 31;
#X connect 1 32 7 32;
#X connect 1 33 7 33;
#X connect 1 34 7 34;
#X connect 1 35 7 35;
#X connect 1 36 7 36;
#X connect 1 37 7 37;
#X connect 1 38 7 38;
#X connect 1 39 7 39;
#X connect 1 40 7 40;
#X connect 1 41 7 41;
#X connect 1 42 7 42;
#X connect 1 43 7 43;
#X connect 1 44 7 44;
#X connect 1 45 7 45;
#X connect 1 46 7 46;
#X connect 1 47 7 47;
#X connect 1 48 7 48;
#X connect 1 49 7 49;
#X connect 1 50 7 50;
#X connect 1 51 7 51;
#X connect 1 52 7 52;
#X connect 1 53 4 0;
#X connect 1 53 13 0;
#X connect 2 0 0 0;
#X connect 4 0 5 0;
#X connect 5 0 3 0;
#X connect 6 0 5 0;
#X connect 7 0 9 0;
#X connect 8 0 6 0;
#X connect 9 0 12 0;
#X connect 10 0 8 0;
#X connect 11 0 10 1;
#X connect 12 0 10 1;
#X connect 13 0 11 0;
#X restore 132 47 pd EZscale;
#X obj 131 384 makenote;
#X obj 223 86 t f f;
#X obj 255 118 f;
#X obj 255 147 -;
#X obj 255 174 abs;
#X obj 133 472 noteout;
#X obj 158 236 metro 250;
#X obj 158 214 tgl 15 0 empty empty empty 17 7 0 10 -262144 -1 -1 1
1;
#X floatatom 255 196 5 0 0 0 - - -;
#X floatatom 158 314 5 0 0 0 - - -;
#X obj 158 339 clip 0 127;
#X obj 158 184 loadbang;
#X floatatom 180 448 5 0 0 0 - - -;
#X floatatom 131 14 5 0 0 0 - - -;
#X obj 255 219 + 1;
#X obj 255 273 * 3000;
#X obj 255 248 * -1;
#X obj 255 298 abs;
#X floatatom 255 322 5 0 0 0 - - -;
#X obj 158 262 drunk 127 26;
#X msg 180 423 3;
#X obj 47 156 ctlout 13 1;
#X obj 80 192 sel 0;
#X obj 59 329 spigot 1;
#X obj 94 278 tgl 15 0 empty empty empty 17 7 0 10 -262144 -1 -1 0
1;
#X msg 62 222 1;
#X msg 61 249 0;
#X obj 298 95 line;
#X floatatom 298 124 5 0 0 0 - - -;
#X msg 298 66 \$1 500;
#X obj 298 38 inlet;
#X obj 414 95 line;
#X floatatom 414 124 5 0 0 0 - - -;
#X msg 414 66 \$1 500;
#X obj 414 38 inlet;
#X obj 298 153 ctlout 17 1;
#X obj 414 153 ctlout 18 1;
#X obj 165 288 + 25;
#X obj 258 357 / 25;
#X obj 21 274 moses 89;
#X obj 24 299 moses 40;
#X connect 0 0 1 0;
#X connect 1 0 26 0;
#X connect 2 0 0 0;
#X connect 3 0 2 0;
#X connect 3 0 4 0;
#X connect 4 0 6 0;
#X connect 4 0 44 0;
#X connect 5 0 10 0;
#X connect 5 1 10 1;
#X connect 5 1 27 0;
#X connect 6 0 8 1;
#X connect 6 1 7 0;
#X connect 7 0 8 0;
#X connect 8 0 9 0;
#X connect 9 0 13 0;
#X connect 11 0 24 0;
#X connect 12 0 11 0;
#X connect 13 0 19 0;
#X connect 14 0 15 0;
#X connect 15 0 5 1;
#X connect 16 0 12 0;
#X connect 16 0 25 0;
#X connect 17 0 10 2;
#X connect 18 0 4 0;
#X connect 19 0 21 0;
#X connect 19 0 24 2;
#X connect 20 0 22 0;
#X connect 21 0 20 0;
#X connect 22 0 23 0;
#X connect 23 0 15 2;
#X connect 23 0 43 0;
#X connect 24 0 42 0;
#X connect 25 0 17 0;
#X connect 27 0 30 0;
#X connect 27 1 31 0;
#X connect 28 0 5 0;
#X connect 29 0 28 1;
#X connect 30 0 29 0;
#X connect 31 0 29 0;
#X connect 32 0 33 0;
#X connect 33 0 40 0;
#X connect 34 0 32 0;
#X connect 35 0 34 0;
#X connect 36 0 37 0;
#X connect 37 0 41 0;
#X connect 38 0 36 0;
#X connect 39 0 38 0;
#X connect 42 0 14 0;
#X connect 43 0 5 2;
#X connect 44 0 45 0;
#X connect 45 1 28 0;
#X restore 691 662 pd pulseToLive;
#N canvas -495 -412 476 814 teaLeavesGSR 0;
#X obj 11 18 inlet;
#X obj 341 14 inlet;
#X floatatom 113 540 5 0 0 0 - - -;
#X obj 113 574 expr ($f1-$f2)*($f5-$f4)/($f3-$f2)+$f4;
#X floatatom 312 539 5 0 0 0 - - -;
#X floatatom 367 538 5 0 0 0 - - -;
#X text 178 556 inMin inMax outMin outMax;
#X floatatom 180 538 5 0 0 0 - - -;
#X floatatom 246 538 5 0 0 0 - - -;
#X msg 366 503 127;
#X obj 364 466 loadbang;
#N canvas 356 139 924 592 EZscale 0;
#X floatatom 61 97 5 0 0 0 - - -;
#X obj 62 120 sel 1 3 6 8 10 13 15 18 20 22 25 27 30 32 34 37 39 42
44 46 49 51 54 56 58 61 63 66 68 70 73 75 78 80 82 85 87 90 92 94 97
99 102 104 106 109 111 114 116 118 121 123 126;
#X obj 60 58 inlet;
#X obj 200 412 outlet;
#X floatatom 315 316 5 0 0 0 - - -;
#X floatatom 200 389 5 0 0 0 - - -;
#X obj 201 361 + 1, f 4;
#X obj 223 236 funnel 53;
#X floatatom 201 340 5 0 0 0 - - -;
#X obj 225 272 bng 15 250 50 0 empty empty empty 17 7 0 10 -262144
-1 -1;
#X obj 201 318 spigot;
#X msg 256 292 0;
#X msg 225 293 1;
#X obj 256 272 bng 15 250 50 0 empty empty empty 17 7 0 10 -262144
-1 -1;
#X connect 0 0 1 0;
#X connect 0 0 10 0;
#X connect 1 0 7 0;
#X connect 1 1 7 1;
#X connect 1 2 7 2;
#X connect 1 3 7 3;
#X connect 1 4 7 4;
#X connect 1 5 7 5;
#X connect 1 6 7 6;
#X connect 1 7 7 7;
#X connect 1 8 7 8;
#X connect 1 9 7 9;
#X connect 1 10 7 10;
#X connect 1 11 7 11;
#X connect 1 12 7 12;
#X connect 1 13 7 13;
#X connect 1 14 7 14;
#X connect 1 15 7 15;
#X connect 1 16 7 16;
#X connect 1 17 7 17;
#X connect 1 18 7 18;
#X connect 1 19 7 19;
#X connect 1 20 7 20;
#X connect 1 21 7 21;
#X connect 1 22 7 22;
#X connect 1 23 7 23;
#X connect 1 24 7 24;
#X connect 1 25 7 25;
#X connect 1 26 7 26;
#X connect 1 27 7 27;
#X connect 1 28 7 28;
#X connect 1 29 7 29;
#X connect 1 30 7 30;
#X connect 1 31 7 31;
#X connect 1 32 7 32;
#X connect 1 33 7 33;
#X connect 1 34 7 34;
#X connect 1 35 7 35;
#X connect 1 36 7 36;
#X connect 1 37 7 37;
#X connect 1 38 7 38;
#X connect 1 39 7 39;
#X connect 1 40 7 40;
#X connect 1 41 7 41;
#X connect 1 42 7 42;
#X connect 1 43 7 43;
#X connect 1 44 7 44;
#X connect 1 45 7 45;
#X connect 1 46 7 46;
#X connect 1 47 7 47;
#X connect 1 48 7 48;
#X connect 1 49 7 49;
#X connect 1 50 7 50;
#X connect 1 51 7 51;
#X connect 1 52 7 52;
#X connect 1 53 4 0;
#X connect 1 53 13 0;
#X connect 2 0 0 0;
#X connect 4 0 5 0;
#X connect 5 0 3 0;
#X connect 6 0 5 0;
#X connect 7 0 9 0;
#X connect 8 0 6 0;
#X connect 9 0 12 0;
#X connect 10 0 8 0;
#X connect 11 0 10 1;
#X connect 12 0 10 1;
#X connect 13 0 11 0;
#X restore 187 122 pd EZscale;
#X obj 185 652 makenote;
#X obj 278 161 t f f;
#X obj 310 193 f;
#X obj 310 222 -;
#X obj 310 249 abs;
#X obj 196 714 noteout;
#X obj 213 311 metro 250;
#X obj 213 289 tgl 15 0 empty empty empty 17 7 0 10 -262144 -1 -1 1
1;
#X floatatom 310 271 5 0 0 0 - - -;
#X floatatom 213 389 5 0 0 0 - - -;
#X obj 213 414 clip 0 127;
#X obj 213 259 loadbang;
#X floatatom 243 690 5 0 0 0 - - -;
#X obj 310 294 + 1;
#X obj 310 323 * -1;
#X obj 310 373 abs;
#X floatatom 310 397 5 0 0 0 - - -;
#X obj 213 337 drunk 127 26;
#X obj 113 413 spigot 1;
#X obj 167 387 tgl 15 0 empty empty empty 17 7 0 10 -262144 -1 -1 0
1;
#X obj 159 275 sel 0;
#X msg 156 309 1;
#X msg 156 336 0;
#X floatatom 89 377 5 0 0 0 - - -;
#X obj 256 368 + 25;
#X msg 180 513 18;
#X msg 246 513 90;
#X msg 312 508 80;
#X obj 310 348 * 1000;
#X obj 86 345 moses 90;
#X obj 112 507 moses 40;
#X msg 243 666 5;
#X connect 0 0 11 0;
#X connect 2 0 3 0;
#X connect 3 0 12 0;
#X connect 4 0 3 3;
#X connect 5 0 3 4;
#X connect 7 0 3 1;
#X connect 8 0 3 2;
#X connect 9 0 5 0;
#X connect 10 0 9 0;
#X connect 10 0 37 0;
#X connect 10 0 38 0;
#X connect 10 0 39 0;
#X connect 11 0 13 0;
#X connect 11 0 41 0;
#X connect 12 0 17 0;
#X connect 12 1 17 1;
#X connect 12 1 32 0;
#X connect 13 0 15 1;
#X connect 13 1 14 0;
#X connect 14 0 15 0;
#X connect 15 0 16 0;
#X connect 16 0 20 0;
#X connect 18 0 29 0;
#X connect 19 0 18 0;
#X connect 20 0 25 0;
#X connect 21 0 22 0;
#X connect 22 0 12 1;
#X connect 23 0 19 0;
#X connect 23 0 43 0;
#X connect 24 0 17 2;
#X connect 25 0 26 0;
#X connect 25 0 29 2;
#X connect 26 0 40 0;
#X connect 27 0 28 0;
#X connect 28 0 22 2;
#X connect 28 0 12 2;
#X connect 29 0 36 0;
#X connect 30 0 42 0;
#X connect 31 0 30 1;
#X connect 32 0 33 0;
#X connect 32 1 34 0;
#X connect 33 0 31 0;
#X connect 34 0 31 0;
#X connect 35 0 30 0;
#X connect 36 0 21 0;
#X connect 37 0 7 0;
#X connect 38 0 8 0;
#X connect 39 0 4 0;
#X connect 40 0 27 0;
#X connect 41 0 35 0;
#X connect 42 1 2 0;
#X connect 43 0 24 0;
#X restore 382 618 pd teaLeavesGSR;
#N canvas -1435 -422 420 865 teaLeavesTherm 0;
#X obj 39 43 inlet;
#X obj 191 44 inlet;
#X obj 352 46 inlet;
#X floatatom 120 560 5 0 0 0 - - -;
#X obj 120 594 expr ($f1-$f2)*($f5-$f4)/($f3-$f2)+$f4;
#X floatatom 319 559 5 0 0 0 - - -;
#X floatatom 374 558 5 0 0 0 - - -;
#X text 185 576 inMin inMax outMin outMax;
#X floatatom 187 558 5 0 0 0 - - -;
#X floatatom 253 558 5 0 0 0 - - -;
#X msg 373 523 127;
#X obj 371 486 loadbang;
#N canvas 356 139 924 592 EZscale 0;
#X floatatom 61 97 5 0 0 0 - - -;
#X obj 62 120 sel 1 3 6 8 10 13 15 18 20 22 25 27 30 32 34 37 39 42
44 46 49 51 54 56 58 61 63 66 68 70 73 75 78 80 82 85 87 90 92 94 97
99 102 104 106 109 111 114 116 118 121 123 126;
#X obj 60 58 inlet;
#X obj 200 412 outlet;
#X floatatom 315 316 5 0 0 0 - - -;
#X floatatom 200 389 5 0 0 0 - - -;
#X obj 201 361 + 1, f 4;
#X obj 223 236 funnel 53;
#X floatatom 201 340 5 0 0 0 - - -;
#X obj 225 272 bng 15 250 50 0 empty empty empty 17 7 0 10 -262144
-1 -1;
#X obj 201 318 spigot;
#X msg 256 292 0;
#X msg 225 293 1;
#X obj 256 272 bng 15 250 50 0 empty empty empty 17 7 0 10 -262144
-1 -1;
#X connect 0 0 1 0;
#X connect 0 0 10 0;
#X connect 1 0 7 0;
#X connect 1 1 7 1;
#X connect 1 2 7 2;
#X connect 1 3 7 3;
#X connect 1 4 7 4;
#X connect 1 5 7 5;
#X connect 1 6 7 6;
#X connect 1 7 7 7;
#X connect 1 8 7 8;
#X connect 1 9 7 9;
#X connect 1 10 7 10;
#X connect 1 11 7 11;
#X connect 1 12 7 12;
#X connect 1 13 7 13;
#X connect 1 14 7 14;
#X connect 1 15 7 15;
#X connect 1 16 7 16;
#X connect 1 17 7 17;
#X connect 1 18 7 18;
#X connect 1 19 7 19;
#X connect 1 20 7 20;
#X connect 1 21 7 21;
#X connect 1 22 7 22;
#X connect 1 23 7 23;
#X connect 1 24 7 24;
#X connect 1 25 7 25;
#X connect 1 26 7 26;
#X connect 1 27 7 27;
#X connect 1 28 7 28;
#X connect 1 29 7 29;
#X connect 1 30 7 30;
#X connect 1 31 7 31;
#X connect 1 32 7 32;
#X connect 1 33 7 33;
#X connect 1 34 7 34;
#X connect 1 35 7 35;
#X connect 1 36 7 36;
#X connect 1 37 7 37;
#X connect 1 38 7 38;
#X connect 1 39 7 39;
#X connect 1 40 7 40;
#X connect 1 41 7 41;
#X connect 1 42 7 42;
#X connect 1 43 7 43;
#X connect 1 44 7 44;
#X connect 1 45 7 45;
#X connect 1 46 7 46;
#X connect 1 47 7 47;
#X connect 1 48 7 48;
#X connect 1 49 7 49;
#X connect 1 50 7 50;
#X connect 1 51 7 51;
#X connect 1 52 7 52;
#X connect 1 53 4 0;
#X connect 1 53 13 0;
#X connect 2 0 0 0;
#X connect 4 0 5 0;
#X connect 5 0 3 0;
#X connect 6 0 5 0;
#X connect 7 0 9 0;
#X connect 8 0 6 0;
#X connect 9 0 12 0;
#X connect 10 0 8 0;
#X connect 11 0 10 1;
#X connect 12 0 10 1;
#X connect 13 0 11 0;
#X restore 194 142 pd EZscale;
#X obj 192 672 makenote;
#X obj 285 181 t f f;
#X obj 317 213 f;
#X obj 317 242 -;
#X obj 317 269 abs;
#X obj 203 734 noteout;
#X obj 220 331 metro 250;
#X obj 220 309 tgl 15 0 empty empty empty 17 7 0 10 -262144 -1 -1 1
1;
#X floatatom 317 291 5 0 0 0 - - -;
#X floatatom 220 409 5 0 0 0 - - -;
#X obj 220 434 clip 0 127;
#X obj 220 279 loadbang;
#X floatatom 270 689 5 0 0 0 - - -;
#X obj 317 314 + 1;
#X obj 317 343 * -1;
#X obj 317 393 abs;
#X floatatom 317 417 5 0 0 0 - - -;
#X obj 220 357 drunk 127 26;
#X obj 120 433 spigot 1;
#X obj 174 407 tgl 15 0 empty empty empty 17 7 0 10 -262144 -1 -1 0
1;
#X obj 166 295 sel 0;
#X msg 163 329 1;
#X msg 163 356 0;
#X obj 93 365 moses 90;
#X floatatom 96 397 5 0 0 0 - - -;
#X obj 263 388 + 25;
#X obj 119 527 moses 18;
#X msg 187 533 18;
#X msg 253 533 90;
#X msg 319 528 80;
#X msg 270 666 6;
#X obj 317 368 * 100;
#X connect 0 0 12 0;
#X connect 3 0 4 0;
#X connect 4 0 13 0;
#X connect 5 0 4 3;
#X connect 6 0 4 4;
#X connect 8 0 4 1;
#X connect 9 0 4 2;
#X connect 10 0 6 0;
#X connect 11 0 10 0;
#X connect 11 0 40 0;
#X connect 11 0 41 0;
#X connect 11 0 42 0;
#X connect 12 0 14 0;
#X connect 12 0 36 0;
#X connect 13 0 18 0;
#X connect 13 1 18 1;
#X connect 13 1 33 0;
#X connect 14 0 16 1;
#X connect 14 1 15 0;
#X connect 15 0 16 0;
#X connect 16 0 17 0;
#X connect 17 0 21 0;
#X connect 19 0 30 0;
#X connect 20 0 19 0;
#X connect 21 0 26 0;
#X connect 22 0 23 0;
#X connect 23 0 13 1;
#X connect 24 0 20 0;
#X connect 24 0 43 0;
#X connect 25 0 18 2;
#X connect 26 0 27 0;
#X connect 26 0 30 2;
#X connect 27 0 44 0;
#X connect 28 0 29 0;
#X connect 29 0 23 2;
#X connect 29 0 13 2;
#X connect 30 0 38 0;
#X connect 31 0 39 0;
#X connect 32 0 31 1;
#X connect 33 0 34 0;
#X connect 33 1 35 0;
#X connect 34 0 32 0;
#X connect 35 0 32 0;
#X connect 36 0 37 0;
#X connect 37 0 31 0;
#X connect 38 0 22 0;
#X connect 39 1 3 0;
#X connect 40 0 8 0;
#X connect 41 0 9 0;
#X connect 42 0 5 0;
#X connect 43 0 25 0;
#X connect 44 0 28 0;
#X restore 531 618 pd teaLeavesTherm;
#N canvas 319 23 478 706 teaLeavesPulse 0;
#X obj 22 50 inlet;
#X obj 170 50 inlet;
#X obj 365 51 inlet;
#X floatatom 120 560 5 0 0 0 - - -;
#X obj 120 594 expr ($f1-$f2)*($f5-$f4)/($f3-$f2)+$f4;
#X floatatom 319 559 5 0 0 0 - - -;
#X floatatom 374 558 5 0 0 0 - - -;
#X text 185 576 inMin inMax outMin outMax;
#X floatatom 187 558 5 0 0 0 - - -;
#X floatatom 253 558 5 0 0 0 - - -;
#X obj 371 486 loadbang;
#N canvas 356 139 924 592 EZscale 0;
#X floatatom 61 97 5 0 0 0 - - -;
#X obj 62 120 sel 1 3 6 8 10 13 15 18 20 22 25 27 30 32 34 37 39 42
44 46 49 51 54 56 58 61 63 66 68 70 73 75 78 80 82 85 87 90 92 94 97
99 102 104 106 109 111 114 116 118 121 123 126;
#X obj 60 58 inlet;
#X obj 200 412 outlet;
#X floatatom 315 316 5 0 0 0 - - -;
#X floatatom 200 389 5 0 0 0 - - -;
#X obj 201 361 + 1, f 4;
#X obj 223 236 funnel 53;
#X floatatom 201 340 5 0 0 0 - - -;
#X obj 225 272 bng 15 250 50 0 empty empty empty 17 7 0 10 -262144
-1 -1;
#X obj 201 318 spigot;
#X msg 256 292 0;
#X msg 225 293 1;
#X obj 256 272 bng 15 250 50 0 empty empty empty 17 7 0 10 -262144
-1 -1;
#X connect 0 0 1 0;
#X connect 0 0 10 0;
#X connect 1 0 7 0;
#X connect 1 1 7 1;
#X connect 1 2 7 2;
#X connect 1 3 7 3;
#X connect 1 4 7 4;
#X connect 1 5 7 5;
#X connect 1 6 7 6;
#X connect 1 7 7 7;
#X connect 1 8 7 8;
#X connect 1 9 7 9;
#X connect 1 10 7 10;
#X connect 1 11 7 11;
#X connect 1 12 7 12;
#X connect 1 13 7 13;
#X connect 1 14 7 14;
#X connect 1 15 7 15;
#X connect 1 16 7 16;
#X connect 1 17 7 17;
#X connect 1 18 7 18;
#X connect 1 19 7 19;
#X connect 1 20 7 20;
#X connect 1 21 7 21;
#X connect 1 22 7 22;
#X connect 1 23 7 23;
#X connect 1 24 7 24;
#X connect 1 25 7 25;
#X connect 1 26 7 26;
#X connect 1 27 7 27;
#X connect 1 28 7 28;
#X connect 1 29 7 29;
#X connect 1 30 7 30;
#X connect 1 31 7 31;
#X connect 1 32 7 32;
#X connect 1 33 7 33;
#X connect 1 34 7 34;
#X connect 1 35 7 35;
#X connect 1 36 7 36;
#X connect 1 37 7 37;
#X connect 1 38 7 38;
#X connect 1 39 7 39;
#X connect 1 40 7 40;
#X connect 1 41 7 41;
#X connect 1 42 7 42;
#X connect 1 43 7 43;
#X connect 1 44 7 44;
#X connect 1 45 7 45;
#X connect 1 46 7 46;
#X connect 1 47 7 47;
#X connect 1 48 7 48;
#X connect 1 49 7 49;
#X connect 1 50 7 50;
#X connect 1 51 7 51;
#X connect 1 52 7 52;
#X connect 1 53 4 0;
#X connect 1 53 13 0;
#X connect 2 0 0 0;
#X connect 4 0 5 0;
#X connect 5 0 3 0;
#X connect 6 0 5 0;
#X connect 7 0 9 0;
#X connect 8 0 6 0;
#X connect 9 0 12 0;
#X connect 10 0 8 0;
#X connect 11 0 10 1;
#X connect 12 0 10 1;
#X connect 13 0 11 0;
#X restore 194 142 pd EZscale;
#X obj 192 672 makenote;
#X obj 285 181 t f f;
#X obj 317 213 f;
#X obj 317 242 -;
#X obj 317 269 abs;
#X obj 203 734 noteout;
#X obj 220 331 metro 250;
#X obj 220 309 tgl 15 0 empty empty empty 17 7 0 10 -262144 -1 -1 1
1;
#X floatatom 317 291 5 0 0 0 - - -;
#X floatatom 220 409 5 0 0 0 - - -;
#X obj 220 434 clip 0 127;
#X obj 220 279 loadbang;
#X floatatom 264 696 5 0 0 0 - - -;
#X obj 317 314 + 1;
#X obj 317 343 * -1;
#X obj 317 393 abs;
#X floatatom 317 417 5 0 0 0 - - -;
#X obj 220 357 drunk 127 26;
#X obj 120 433 spigot 1;
#X obj 174 407 tgl 15 0 empty empty empty 17 7 0 10 -262144 -1 -1 0
1;
#X obj 166 295 sel 0;
#X msg 163 329 1;
#X msg 163 356 0;
#X obj 263 388 + 25;
#X obj 93 365 moses 89;
#X obj 102 399 moses 40;
#X msg 187 533 40;
#X msg 253 533 89;
#X msg 318 528 11;
#X msg 373 523 40;
#X msg 264 672 7;
#X obj 317 368 * 100;
#X connect 0 0 11 0;
#X connect 3 0 4 0;
#X connect 4 0 12 0;
#X connect 5 0 4 3;
#X connect 6 0 4 4;
#X connect 8 0 4 1;
#X connect 9 0 4 2;
#X connect 10 0 41 0;
#X connect 10 0 38 0;
#X connect 10 0 39 0;
#X connect 10 0 40 0;
#X connect 11 0 13 0;
#X connect 11 0 36 0;
#X connect 12 0 17 0;
#X connect 12 1 17 1;
#X connect 12 1 32 0;
#X connect 13 0 15 1;
#X connect 13 1 14 0;
#X connect 14 0 15 0;
#X connect 15 0 16 0;
#X connect 16 0 20 0;
#X connect 18 0 29 0;
#X connect 19 0 18 0;
#X connect 20 0 25 0;
#X connect 21 0 22 0;
#X connect 22 0 12 1;
#X connect 23 0 19 0;
#X connect 23 0 42 0;
#X connect 24 0 17 2;
#X connect 25 0 26 0;
#X connect 25 0 29 2;
#X connect 26 0 43 0;
#X connect 27 0 28 0;
#X connect 28 0 22 2;
#X connect 28 0 12 2;
#X connect 29 0 35 0;
#X connect 30 0 3 0;
#X connect 31 0 30 1;
#X connect 32 0 33 0;
#X connect 32 1 34 0;
#X connect 33 0 31 0;
#X connect 34 0 31 0;
#X connect 35 0 21 0;
#X connect 36 0 37 0;
#X connect 37 1 30 0;
#X connect 38 0 8 0;
#X connect 39 0 9 0;
#X connect 40 0 5 0;
#X connect 41 0 6 0;
#X connect 42 0 24 0;
#X connect 43 0 27 0;
#X restore 697 612 pd teaLeavesPulse;
#X msg 562 778 20;
#X text 660 201 OUR DATA;
#N canvas 466 83 974 673 toProcessing 0;
#X obj 339 97 r receiver;
#X obj 16 153 list prepend send;
#X obj 16 180 list trim;
#X obj 13 606 netsend -u -b;
#X obj 40 479 loadbang;
#X msg 40 516 connect localhost 7410;
#X obj 339 122 oscparse;
#X obj 339 150 list trim;
#X obj 339 178 route biodata;
#X obj 339 210 route /gsr /therm /pulse, f 69;
#X obj 16 89 r sender2;
#X floatatom 376 313 5 0 0 0 - - -;
#X floatatom 498 314 5 0 0 0 - - -;
#X floatatom 661 316 5 0 0 0 - - -;
#X text 773 260 pulse;
#X obj 376 256 unpack, f 7;
#X floatatom 422 313 5 0 0 0 - - -;
#X text 434 256 GSR;
#X obj 660 260 unpack 0 0 0, f 13;
#X obj 500 260 unpack 0 0 0, f 13;
#X text 601 261 RESP;
#X floatatom 544 315 5 0 0 0 - - -;
#X floatatom 588 315 5 0 0 0 - - -;
#X floatatom 705 317 5 0 0 0 - - -;
#X floatatom 749 317 5 0 0 0 - - -;
#X text 427 295 Lowpass;
#X text 369 295 Hipass;
#X text 488 296 Signal;
#X text 656 298 Signal;
#X text 542 294 BPMch;
#X text 704 298 BPMch;
#X text 592 293 AMPch;
#X text 751 298 AMPch;
#X obj 432 422 list prepend send;
#X obj 432 449 list trim;
#X obj 433 396 oscformat /biodata2;
#X obj 16 128 oscformat /biodata1;
#X text 17 59 ME;
#X text 337 72 YOU;
#X obj 281 286 tgl 15 0 empty empty empty 17 7 0 10 -262144 -1 -1 1
1;
#X obj 281 260 loadbang;
#X obj 836 294 r sender2;
#X obj 433 362 pack 0 0 0 0 0 0 0, f 20;
#X obj 836 319 unpack 0 0 0;
#X obj 278 304 metro 20;
#X connect 0 0 6 0;
#X connect 1 0 2 0;
#X connect 2 0 3 0;
#X connect 4 0 5 0;
#X connect 5 0 3 0;
#X connect 6 0 7 0;
#X connect 7 0 8 0;
#X connect 8 0 9 0;
#X connect 9 0 15 0;
#X connect 9 1 19 0;
#X connect 9 2 18 0;
#X connect 10 0 36 0;
#X connect 11 0 42 1;
#X connect 12 0 42 2;
#X connect 13 0 42 3;
#X connect 15 0 11 0;
#X connect 15 1 16 0;
#X connect 18 0 13 0;
#X connect 18 1 23 0;
#X connect 18 2 24 0;
#X connect 19 0 12 0;
#X connect 19 1 21 0;
#X connect 19 2 22 0;
#X connect 33 0 34 0;
#X connect 34 0 3 0;
#X connect 35 0 33 0;
#X connect 36 0 1 0;
#X connect 39 0 44 0;
#X connect 40 0 39 0;
#X connect 41 0 43 0;
#X connect 42 0 35 0;
#X connect 43 0 42 4;
#X connect 43 1 42 5;
#X connect 43 2 42 6;
#X connect 44 0 42 0;
#X restore 663 235 pd toProcessing;
#X obj 72 479 s sender2;
#X obj 72 450 pack 0 0 0, f 20;
#X obj 354 423 route /jengsr /jentherm /jenpulse, f 69;
#X connect 5 0 68 0;
#X connect 5 0 71 0;
#X connect 5 0 23 0;
#X connect 6 0 69 0;
#X connect 6 0 72 0;
#X connect 6 0 22 0;
#X connect 7 0 21 0;
#X connect 7 0 70 0;
#X connect 7 0 73 0;
#X connect 10 0 11 0;
#X connect 10 1 11 1;
#X connect 12 0 11 2;
#X connect 16 0 37 0;
#X connect 17 0 15 0;
#X connect 18 0 15 1;
#X connect 21 0 9 0;
#X connect 21 1 9 1;
#X connect 21 1 9 2;
#X connect 22 0 10 1;
#X connect 22 1 10 2;
#X connect 23 0 10 0;
#X connect 24 0 74 0;
#X connect 37 0 38 0;
#X connect 38 0 39 0;
#X connect 39 0 79 0;
#X connect 40 0 5 0;
#X connect 40 1 41 0;
#X connect 41 0 68 1;
#X connect 41 0 71 1;
#X connect 42 0 43 0;
#X connect 43 0 78 0;
#X connect 44 0 45 0;
#X connect 45 0 78 1;
#X connect 46 0 47 0;
#X connect 47 0 78 2;
#X connect 49 0 7 0;
#X connect 49 1 54 0;
#X connect 49 2 55 0;
#X connect 50 0 6 0;
#X connect 50 1 52 0;
#X connect 50 2 53 0;
#X connect 52 0 69 1;
#X connect 52 0 72 1;
#X connect 53 0 69 2;
#X connect 53 0 72 2;
#X connect 54 0 70 1;
#X connect 54 0 73 1;
#X connect 55 0 70 2;
#X connect 55 0 73 2;
#X connect 64 0 15 2;
#X connect 74 0 12 0;
#X connect 78 0 77 0;
#X connect 79 0 40 0;
#X connect 79 1 50 0;
#X connect 79 2 49 0;
