#N canvas 681 92 623 300 12;
#X obj 80 67 netreceive -u -b;
#X obj 80 93 oscparse;
#X obj 80 119 list trim;
#X floatatom 81 191 5 0 0 0 - - -;
#X obj 80 8 loadbang;
#X obj 13 151 print;
#X obj 81 150 route index bpm bpmChange heartSignal gsr gsrLoPass bvpa
;
#X floatatom 137 189 5 0 0 0 - - -;
#X floatatom 194 191 5 0 0 0 - - -;
#X floatatom 252 187 5 0 0 0 - - -;
#X floatatom 326 192 5 0 0 0 - - -;
#X floatatom 391 184 5 0 0 0 - - -;
#X floatatom 470 187 5 0 0 0 - - -;
#X msg 80 39 listen 7404;
#X msg 220 45 listen 7403;
#X msg 321 43 listen 7402;
#X connect 0 0 1 0;
#X connect 1 0 2 0;
#X connect 2 0 5 0;
#X connect 2 0 6 0;
#X connect 4 0 13 0;
#X connect 6 0 3 0;
#X connect 6 1 7 0;
#X connect 6 2 8 0;
#X connect 6 3 9 0;
#X connect 6 4 10 0;
#X connect 6 5 11 0;
#X connect 6 6 12 0;
#X connect 13 0 0 0;
#X connect 14 0 0 0;
#X connect 15 0 0 0;
