#N canvas 659 236 782 508 12;
#X obj 30 106 oscparse;
#X obj 30 78 netreceive -u -b;
#X msg 30 52 listen 7401;
#X obj 30 130 list trim;
#X obj 30 156 route fromClient;
#X floatatom 30 181 5 0 0 0 - - -;
#X obj 30 21 loadbang;
#X obj 396 107 oscparse;
#X obj 396 79 netreceive -u -b;
#X obj 396 131 list trim;
#X floatatom 396 182 5 0 0 0 - - -;
#X obj 396 22 loadbang;
#X msg 396 53 listen 7403;
#X obj 396 157 route fromServer;
#X text 70 182 Jen's Data;
#X text 438 182 Erin's Data;
#X connect 0 0 3 0;
#X connect 1 0 0 0;
#X connect 2 0 1 0;
#X connect 3 0 4 0;
#X connect 4 0 5 0;
#X connect 6 0 2 0;
#X connect 7 0 9 0;
#X connect 8 0 7 0;
#X connect 9 0 13 0;
#X connect 11 0 12 0;
#X connect 12 0 8 0;
#X connect 13 0 10 0;
