#N canvas 256 76 808 538 12;
#X obj 61 44 tgl 15 0 empty empty empty 17 7 0 10 -262144 -1 -1 0 1
;
#X obj 61 68 metro 200;
#X obj 61 94 random 100;
#X msg 139 209 connect localhost 7404;
#X text 83 42 Send by Client to Remote Server;
#X obj 139 179 loadbang;
#X obj 61 248 netsend -u -b;
#X obj 61 153 list prepend send;
#X obj 61 178 list trim;
#X obj 61 120 oscformat /fromClient;
#X obj 61 377 oscparse;
#X obj 61 349 netreceive -u -b;
#X msg 61 323 listen 7401;
#X obj 61 401 list trim;
#X obj 61 427 route fromClient;
#X floatatom 61 452 5 0 0 0 - - -;
#X obj 61 292 loadbang;
#X obj 427 45 tgl 15 0 empty empty empty 17 7 0 10 -262144 -1 -1 0
1;
#X obj 427 69 metro 200;
#X obj 427 95 random 100;
#X obj 505 180 loadbang;
#X obj 427 249 netsend -u -b;
#X obj 427 154 list prepend send;
#X obj 427 179 list trim;
#X obj 427 378 oscparse;
#X obj 427 350 netreceive -u -b;
#X obj 427 402 list trim;
#X floatatom 427 453 5 0 0 0 - - -;
#X obj 427 293 loadbang;
#X text 449 43 Send by Server to Remote Client;
#X obj 427 121 oscformat /fromServer;
#X msg 505 210 connect localhost 7402;
#X msg 427 324 listen 7403;
#X obj 427 428 route fromServer;
#X connect 0 0 1 0;
#X connect 1 0 2 0;
#X connect 2 0 9 0;
#X connect 3 0 6 0;
#X connect 5 0 3 0;
#X connect 7 0 8 0;
#X connect 8 0 6 0;
#X connect 9 0 7 0;
#X connect 10 0 13 0;
#X connect 11 0 10 0;
#X connect 12 0 11 0;
#X connect 13 0 14 0;
#X connect 14 0 15 0;
#X connect 16 0 12 0;
#X connect 17 0 18 0;
#X connect 18 0 19 0;
#X connect 19 0 30 0;
#X connect 20 0 31 0;
#X connect 22 0 23 0;
#X connect 23 0 21 0;
#X connect 24 0 26 0;
#X connect 25 0 24 0;
#X connect 26 0 33 0;
#X connect 28 0 32 0;
#X connect 30 0 22 0;
#X connect 31 0 21 0;
#X connect 32 0 25 0;
#X connect 33 0 27 0;
