#N canvas 0 23 450 300 12;
#X obj 80 67 netreceive -u -b;
#X obj 80 93 oscparse;
#X obj 78 118 list trim;
#X msg 80 39 listen 3333;
#X obj 80 151 unpack f f f f f f f;
#X floatatom 80 216 5 0 0 0 - - -;
#X floatatom 126 216 5 0 0 0 - - -;
#X floatatom 174 215 5 0 0 0 - - -;
#X floatatom 220 215 5 0 0 0 - - -;
#X floatatom 269 214 5 0 0 0 - - -;
#X floatatom 315 215 5 0 0 0 - - -;
#X floatatom 360 215 5 0 0 0 - - -;
#X obj 80 8 loadbang;
#X obj 14 208 print;
#X connect 0 0 1 0;
#X connect 1 0 2 0;
#X connect 2 0 4 0;
#X connect 2 0 13 0;
#X connect 3 0 0 0;
#X connect 4 0 5 0;
#X connect 4 1 6 0;
#X connect 4 2 7 0;
#X connect 4 3 8 0;
#X connect 4 4 9 0;
#X connect 4 5 10 0;
#X connect 4 6 11 0;
#X connect 12 0 3 0;
